<?xml version="1.0" encoding="UTF-8" standalone="no"?>
<!-- Created with Inkscape (http://www.inkscape.org/) -->

<svg
   width="96.708504mm"
   height="115.58298mm"
   viewBox="0 0 96.708504 115.58298"
   version="1.1"
   id="svg5"
   inkscape:version="1.3.2 (091e20e, 2023-11-25, custom)"
   sodipodi:docname="logo.svg"
   xmlns:inkscape="http://www.inkscape.org/namespaces/inkscape"
   xmlns:sodipodi="http://sodipodi.sourceforge.net/DTD/sodipodi-0.dtd"
   xmlns="http://www.w3.org/2000/svg"
   xmlns:svg="http://www.w3.org/2000/svg">
  <sodipodi:namedview
     id="namedview7"
     pagecolor="#ffffff"
     bordercolor="#000000"
     borderopacity="0.25"
     inkscape:showpageshadow="2"
     inkscape:pageopacity="0.0"
     inkscape:pagecheckerboard="0"
     inkscape:deskcolor="#d1d1d1"
     inkscape:document-units="mm"
     showgrid="false"
     inkscape:lockguides="false"
     inkscape:zoom="2.2629473"
     inkscape:cx="139.86185"
     inkscape:cy="276.18849"
     inkscape:window-width="1871"
     inkscape:window-height="1501"
     inkscape:window-x="2361"
     inkscape:window-y="364"
     inkscape:window-maximized="0"
     inkscape:current-layer="layer1" />
  <defs
     id="defs2">
    <inkscape:path-effect
       effect="bspline"
       id="path-effect6"
       is_visible="true"
       lpeversion="1.3"
       weight="33.333333"
       steps="2"
       helper_size="0"
       apply_no_weight="true"
       apply_with_weight="true"
       only_selected="false"
       uniform="false" />
  </defs>
  <g
     inkscape:label="Ebene 1"
     inkscape:groupmode="layer"
     id="layer1"
     transform="translate(-60.147771,-94.73353)">
    <path
       style="fill:none;fill-opacity:1;stroke-width:0.264583"
       d="M 56.406446,240.88327 37.912529,140.09142 47.313603,134.23501 V 134.0809"
       id="path14494" />
    <path
       style="fill:none;fill-opacity:1;stroke-width:0.264583"
       d="m 60.875809,124.52571 47.930071,-26.816182 47.3136,26.662062"
       id="path14492" />
    <path
       style="fill:#000000;stroke:#000000;stroke-width:0.553339;stroke-opacity:1"
       id="path7"
       d="m 62.752444,125.58248 c 0.664038,-0.68555 1.652146,-1.05777 2.519792,-1.42286 0.265777,-0.10399 0.531145,-0.20898 0.797332,-0.31194 0.191603,-0.0741 1.373682,-0.5231 1.571018,-0.60486 0.771433,-0.31959 1.520463,-0.6884 2.266993,-1.05929 1.56705,-0.87504 3.082997,-1.83333 4.634213,-2.7348 1.864302,-1.0351 3.766486,-2.00243 5.67282,-2.96042 2.073475,-1.05127 4.129955,-2.13467 6.14183,-3.29556 1.054758,-0.65497 2.124871,-1.29657 3.129988,-2.02483 2.732363,-1.97974 -1.43614,0.95792 1.383397,-1.0179 0.628843,-0.46578 1.319658,-0.84365 1.961895,-1.28986 0.22086,-0.15345 0.429834,-0.32278 0.648327,-0.47945 0.5375,-0.38542 0.895996,-0.61931 1.446777,-0.98843 1.270769,-0.86183 2.601163,-1.63344 3.900024,-2.45272 1.35544,-0.88612 2.81769,-1.59602 4.28446,-2.28431 0.78758,-0.34749 1.57166,-0.70053 2.32725,-1.11124 0.50079,-0.24224 0.92448,-0.60275 1.37712,-0.91641 0.28189,-0.19532 0.57424,-0.37578 0.85919,-0.5668 0.4669,-0.288948 0.96493,-0.544603 1.48263,-0.736609 0.0617,-0.02019 0.12149,-0.02539 0.1838,-0.007 0.0152,0.005 0.0443,0.04418 0.0303,0.03668 -0.52057,-0.275388 -1.03498,-0.561823 -1.55246,-0.842736 0.0902,0.563279 0.38106,1.066956 0.69515,1.536985 0.57914,0.77409 1.30309,1.43198 2.02127,2.07976 0.85308,0.80346 1.81549,1.47546 2.80279,2.10846 1.78019,1.12475 3.55235,2.26114 5.31974,3.40515 1.42658,0.90939 2.81664,1.87218 4.13076,2.93312 0.80709,0.65159 1.4126,1.19317 2.19081,1.87265 1.79148,1.61982 3.57424,3.24821 5.48656,4.73136 0.7547,0.56648 1.55426,1.0717 2.37845,1.5348 0.72652,0.40822 1.45351,0.81575 2.18698,1.21186 0.6003,0.32419 1.10474,0.5437 1.7272,0.83009 1.07484,0.45861 2.14274,0.95284 3.26649,1.28977 0.29464,0.0884 1.04372,0.26687 1.34661,0.34069 1.46558,0.24213 2.91756,0.54306 4.36664,0.86555 1.58149,0.36774 3.15204,0.78089 4.71133,1.23033 0.91292,0.26804 1.81927,0.55752 2.71872,0.86605 0.48522,0.15646 0.96797,0.32257 1.43024,0.53655 0.53688,0.24241 0.90896,0.57338 -0.93124,-0.69664 0,0 0.21368,0.1291 0.21368,0.1291 v 0 c -0.36296,-0.29144 -0.72336,-0.58596 -1.08884,-0.87435 -0.006,-0.005 -0.0564,-0.0101 -0.0607,-0.009 -0.009,0.003 -0.0138,0.0124 -0.0206,0.0186 -0.28366,0.0547 -0.69623,-0.14389 -0.97274,-0.19259 -0.82382,-0.24524 -1.65998,-0.44922 -2.4873,-0.68264 -1.5552,-0.42017 -3.11676,-0.81705 -4.68201,-1.19974 -0.79444,-0.18955 -1.58906,-0.37353 -2.38957,-0.53708 -0.24688,-0.0504 -0.4944,-0.0978 -0.74159,-0.14678 -0.22583,-0.0422 -0.45236,-0.081 -0.67748,-0.12664 -0.22804,-0.0463 -0.45456,-0.0994 -0.68183,-0.14913 -1.55866,-0.36374 -3.05818,-0.92061 -4.50707,-1.58992 -0.30993,-0.14796 -0.62193,-0.2918 -0.92975,-0.4439 -0.28227,-0.13946 -0.54296,-0.32567 -0.84034,-0.43069 -0.19533,-0.069 0.71474,0.41349 0.52979,0.32104 -0.87178,-0.43581 -1.67112,-1.0075 -2.47376,-1.55036 -0.87286,-0.65498 -0.93417,-0.685 -1.79192,-1.39589 -1.33401,-1.10563 -2.59521,-2.29181 -3.91481,-3.41352 -1.10012,-0.94187 -2.19524,-1.89777 -3.34098,-2.78673 -0.66506,-0.51601 -1.24808,-0.91172 -1.94686,-1.37788 -0.32133,-0.21436 -0.64631,-0.42341 -0.96945,-0.63511 -1.71539,-1.10832 -3.41949,-2.23329 -5.13909,-3.33526 -0.94404,-0.62892 -1.88009,-1.2721 -2.70864,-2.04663 -0.70779,-0.62232 -1.40786,-1.26446 -1.97596,-2.01594 -0.27679,-0.41512 -0.52988,-0.852239 -0.59889,-1.352544 -0.51051,-0.330459 -1.02103,-0.660912 -1.53155,-0.991366 0.0107,0.06106 0.018,0.113786 -0.0303,0.164016 -0.33772,0.351087 -0.66453,0.717953 -1.06016,1.008021 -1.62308,1.150223 0.79877,-0.57261 -0.81431,0.596803 -0.43686,0.3167 -0.89425,0.60739 -1.3118,0.94951 -0.67252,0.45818 -1.38975,0.84854 -2.09747,1.25129 -1.41606,0.78019 -2.853191,1.52311 -4.272685,2.2973 -1.309016,0.78584 -2.543874,1.682 -3.8347,2.49599 -0.527025,0.3484 -0.946754,0.62913 -1.479656,0.96843 -0.234543,0.14934 -0.475389,0.28919 -0.707474,0.44217 -0.645415,0.42544 -1.252496,0.90601 -1.899304,1.32967 -0.968929,0.65584 -0.478871,0.33445 -1.470269,0.96404 -0.237668,0.15996 -0.464356,0.33511 -0.699263,0.49894 -0.773234,0.53928 -1.559463,1.0614 -2.354631,1.56899 -0.76454,0.47306 -1.047757,0.65731 -1.838729,1.10913 -1.389096,0.79349 -2.827319,1.49738 -4.261418,2.20818 -0.537866,0.25985 -1.648209,0.79811 -2.193117,1.05414 -1.224663,0.57543 -2.460717,1.129 -3.62635,1.81687 -1.563074,0.89596 -3.08654,1.85852 -4.681836,2.6996 -1.494376,0.75817 -3.038071,1.40984 -4.617637,1.97931 -0.267398,0.094 -0.534116,0.18987 -0.802192,0.282 -0.717025,0.2464 -1.466833,0.46978 -2.029838,0.99787 z" />
    <path
       style="fill:#000000;stroke:#000000;stroke-width:0.599799;stroke-opacity:1"
       id="path28"
       d="m 152.99894,126.23609 c -0.34497,1.11529 -0.49698,2.29515 -0.63143,3.4716 -0.26421,2.63562 -0.19365,5.29999 -0.13574,7.94827 0.0214,0.52944 0.0333,1.05962 0.0644,1.58833 0.0376,0.63838 0.10247,1.27395 0.14161,1.91219 0.0416,0.67752 0.1605,3.34106 0.17934,4.00164 0.0369,1.29105 0.032,2.46787 0.0354,3.75683 0.0165,2.77263 -0.11059,5.54377 -0.0662,8.31596 0.0674,2.09913 0.27822,4.18551 0.42942,6.27699 0.0806,1.0745 0.0876,2.15616 0.18611,3.22873 0.0445,0.48407 0.10159,0.96626 0.14868,1.44995 0.0924,0.91929 0.18128,1.83889 0.23779,2.76275 0.0329,0.39656 0.067,0.79326 0.0922,1.19069 0.30217,0.48652 0.79836,0.60317 1.24276,0.85137 0,0 -0.41364,-0.32675 -0.41364,-0.32675 v 0 c 0.30602,0.20591 0.61082,0.4146 0.91806,0.61771 0.0451,0.0299 0.0884,0.0697 0.13869,0.0811 0.0213,0.004 0.0387,-0.0246 0.0578,-0.037 -0.0686,-0.43423 -0.15213,-0.86318 -0.24465,-1.29073 -0.1921,-0.95701 -0.34357,-1.92619 -0.47377,-2.89894 -0.19371,-1.57915 -0.33698,-3.16721 -0.47382,-4.75529 -0.18025,-2.10865 -0.35775,-4.21761 -0.52902,-6.32736 -0.15239,-2.8384 -0.16587,-5.68386 -0.27324,-8.52517 -0.0687,-1.94716 -0.13628,-3.89419 -0.20036,-5.84159 -0.0214,-0.65184 -0.0525,-1.30321 -0.0685,-1.95531 -0.015,-0.61255 -0.009,-1.22571 -0.0243,-1.83823 -0.0136,-0.52856 -0.0423,-1.05635 -0.0633,-1.58454 -0.0144,-0.52783 -0.0366,-1.05543 -0.0431,-1.58351 -0.0261,-2.09845 0.0722,-4.19857 0.2604,-6.28336 0.13339,-1.16244 0.25954,-2.34381 0.59534,-3.44842 z" />
    <path
       style="fill:#000000;stroke:#000000;stroke-width:0.548;stroke-opacity:1"
       id="path29"
       d="m 84.083973,161.7611 c 0.265884,1.4436 0.664675,2.85988 1.034871,4.27941 0.402204,1.54202 0.69438,3.10675 0.918012,4.68341 0.09139,0.75703 0.145858,1.51856 0.180169,2.28017 0.05814,0.73283 0.0761,1.46701 0.08145,2.20182 0.0047,0.36206 -0.02466,0.72307 -0.0349,1.0847 -0.01274,0.44958 0.01448,0.89855 0.018,1.34789 0.02559,0.22527 -0.05,0.45454 -0.0069,0.67759 0.384927,0.9574 1.1878,0.85369 1.918712,0.88699 0.965628,0.0753 1.933548,0.0989 2.901594,0.11755 1.042746,0.0139 2.085256,0.0232 3.127647,0.0538 1.033682,0.0552 2.068623,0.0757 3.10337,0.0979 0.923223,0.029 1.84447,0.0989 2.764726,0.1759 0.86965,0.0692 1.73681,0.16321 2.6023,0.27197 0.0125,0.002 0.36173,0.074 0.43017,0.0195 0.087,-0.0693 -0.0659,-0.21584 -0.12829,-0.30782 0,0 -0.0807,-0.0729 -0.0807,-0.0729 v 0 c -0.36006,-0.24176 -0.69819,-0.48547 -1.15204,-0.46256 -0.84702,-0.0559 -1.69246,-0.13012 -2.537284,-0.21267 -0.918347,-0.0794 -1.837683,-0.15284 -2.759981,-0.16204 -1.027242,-0.0213 -2.054935,-0.0193 -3.081069,-0.0807 -1.040805,-0.0453 -2.082417,-0.0344 -3.123938,-0.0483 -0.991298,-0.0221 -1.985144,-0.0515 -2.968574,-0.18779 -0.35659,-0.0497 -0.305413,-0.0384 -0.624941,-0.0965 -0.04807,-0.009 -0.09674,-0.0153 -0.143816,-0.0282 -0.0247,-0.006 -0.09048,-0.0469 -0.07,-0.0316 1.013843,0.75957 1.467879,0.84137 1.016415,0.75599 -0.126186,-0.18953 -0.04271,-0.47739 -0.08868,-0.68677 -0.02947,-0.45 -0.05897,-0.90082 -0.04398,-1.352 0.02178,-0.37448 0.0564,-0.74975 -0.0029,-1.1233 -0.08306,-0.75731 -0.17245,-1.5137 -0.201844,-2.27577 -0.05895,-0.80586 -0.09324,-1.61477 -0.339424,-2.39245 -0.417739,-1.64843 -0.924058,-3.27357 -1.32258,-4.92732 -0.345487,-1.3699 -0.729193,-2.74963 -0.85392,-4.16081 z" />
    <path
       style="fill:#000000;stroke:#000000;stroke-width:0.548;stroke-opacity:1"
       id="path30"
       d="m 84.892694,162.60001 c 1.109371,-0.41299 2.300315,-0.48516 3.469236,-0.57604 1.828742,-0.10069 3.66095,-0.13348 5.491811,-0.18136 1.910275,-0.0337 3.819304,-0.13125 5.723112,-0.29062 1.846787,-0.25003 3.698957,-0.45564 5.553447,-0.63902 1.08945,-0.082 2.17639,-0.23581 3.27028,-0.24327 0.11788,0.036 0.24639,-0.0251 0.36558,2.6e-4 0.0316,0.007 0.11245,0.0638 0.0841,0.0483 -0.38306,-0.2086 -0.748,-0.45411 -1.14812,-0.62777 -0.058,-0.0252 0.0671,0.1082 0.0882,0.16776 0.0319,0.0902 0.0465,0.18563 0.0697,0.27844 0.24318,1.21084 0.36595,2.43907 0.45352,3.66948 0.0673,1.64022 0.0665,3.28238 0.0917,4.92368 0.0502,0.90123 0.0253,1.80644 0.13771,2.7036 0.0373,0.29741 0.12411,0.78859 0.17498,1.08735 0.15773,0.7875 0.34509,1.56851 0.50945,2.35461 0.0929,0.57087 0.17076,1.14457 0.29398,1.70993 0.0679,0.2702 0.13144,0.54112 0.16535,0.81785 0.002,0.018 0.007,0.0361 0.005,0.0541 -0.001,0.0107 -0.004,0.0276 -0.0146,0.0287 -0.0264,0.003 -0.002,-0.0652 -0.0261,-0.0751 -0.0292,-0.0116 -0.0628,0.003 -0.0941,0.006 -0.0605,0.005 -0.12089,0.0122 -0.18134,0.0183 -0.70079,0.0332 -1.40242,0.0296 -2.10371,0.0215 -0.7509,0.0301 -1.26505,0.34666 -1.86637,0.75345 -0.4663,0.37417 -1.00781,0.54422 -1.57801,0.68051 -0.30172,0.0621 -0.60683,0.0977 -0.91227,0.13341 0.12709,0.22973 0.0146,0.0468 0.50732,0.3972 0,0 0.33958,0.25056 0.33958,0.25056 v 0 c 0.53804,0.36367 0.31337,0.26678 0.62419,0.38623 0.27977,-0.0563 0.55411,-0.14112 0.83006,-0.2128 0.55767,-0.16573 1.07365,-0.40011 1.51319,-0.79144 0.0565,-0.0408 0.4393,-0.32036 0.50501,-0.35698 0.40201,-0.224 0.85453,-0.31391 1.3107,-0.31447 0.72455,-0.005 1.4489,0.002 2.17317,0.0235 0.11113,0.004 0.52113,0.0717 0.4914,-0.16756 -0.005,-0.0404 -0.057,-0.067 -0.0421,-0.1147 -0.0724,-0.29222 -0.16458,-0.57879 -0.24974,-0.8675 -0.15162,-0.57434 -0.27133,-1.15203 -0.36497,-1.73884 -0.16836,-0.81478 -0.43961,-1.6006 -0.62682,-2.41079 -0.29852,-1.2665 -0.46319,-2.55252 -0.49003,-3.85511 -0.0772,-1.65395 -0.12303,-3.30903 -0.16778,-4.96413 -0.0284,-1.19026 -0.0481,-2.38264 -0.20152,-3.56503 -0.0141,-0.0939 -0.0286,-0.18778 -0.0422,-0.28176 -0.01,-0.0656 0.0256,-0.15717 -0.0274,-0.19706 -1.02712,-0.77337 -0.90292,-0.9063 -1.61836,-0.69791 -0.96976,0.25717 -1.98455,0.29878 -2.97226,0.45434 -1.82965,0.23694 -3.65563,0.50917 -5.493141,0.67927 -1.892421,0.17626 -3.791465,0.25466 -5.691049,0.30727 -1.847464,0.0377 -3.696214,0.0378 -5.541497,0.15064 -1.03287,0.0722 -0.695662,0.0442 -1.719391,0.13332 -0.232216,0.0202 -1.188899,0.10095 -1.463978,0.14303 -0.2353,0.036 -0.359503,0.0855 -0.569424,0.15652 z" />
    <path
       style="fill:#000000;stroke:#000000;stroke-width:0.548;stroke-opacity:1"
       id="path32"
       d="m 89.652534,183.27744 c 0.170381,-0.008 0.340315,0.0339 0.510432,0.025 0.391903,-0.0205 0.946396,-0.20148 1.330793,-0.30521 0.793017,-0.19458 1.566815,-0.45612 2.354543,-0.66939 0.725315,-0.20893 1.471771,-0.30609 2.222198,-0.36118 0.536317,-0.0309 1.074124,-0.0383 1.610891,-0.0164 0.402237,0.0386 0.803894,0.0834 1.205681,0.12685 0.479609,0.0581 0.963509,0.0609 1.445918,0.0649 0.45494,5.3e-4 0.90704,-0.0476 1.35086,-0.14596 0.32285,-0.0599 0.64813,-0.10647 0.97392,-0.14729 0.13953,-0.007 0.24435,0.0295 0.35801,0.10469 0.318,0.23302 0.0875,0.0659 -0.65851,-0.54389 0,0 -0.24602,-0.14001 -0.24602,-0.14001 v 0 c -0.79296,-0.5143 -1.01099,-0.68998 -0.70877,-0.45083 0.0936,0.074 0.13521,0.0951 0.0179,0.16603 -0.29559,0.0782 -0.59161,0.15543 -0.89417,0.20333 -0.43402,0.071 -0.867719,0.14545 -1.309458,0.14302 -0.479877,0.005 -0.959134,-0.0257 -1.436234,-0.0773 -0.399637,-0.0479 -0.800054,-0.10353 -1.203091,-0.10878 -0.521837,0.002 -1.044324,0.0217 -1.56412,0.0684 -0.736947,0.083 -1.470258,0.21037 -2.183337,0.41706 -0.768019,0.23159 -1.533152,0.47173 -2.300216,0.70548 -0.268986,0.0767 -0.4176,0.12123 -0.686223,0.18942 -0.196276,0.0498 -0.399733,0.0717 -0.592828,0.13273 -0.511596,0.16163 0.134265,0.0263 -0.301191,0.10857 z" />
    <path
       style="fill:#000000;stroke:#000000;stroke-width:0.548;stroke-opacity:1"
       id="path33"
       d="m 88.933962,183.41633 c -0.266118,0.24575 -0.456433,0.545 -0.616188,0.86682 -0.196353,0.44663 -0.308068,0.91481 -0.408554,1.38959 -0.09124,0.46126 -0.149148,0.93042 -0.267008,1.38584 -0.0043,0.0946 -0.166593,0.46085 -0.07892,0.53103 0.08051,0.0644 0.173311,0.11183 0.259967,0.16774 0.03778,0.0261 0.07555,0.0523 0.113326,0.0784 0,0 0.177771,0.084 0.177771,0.084 v 0 c 0.03424,0.0147 0.06849,0.0294 0.102733,0.0441 0.08896,0.0363 0.174053,0.0842 0.26689,0.10895 0.01704,0.005 0.03891,-0.009 0.04644,-0.0253 0.03457,-0.0732 -0.0299,-0.4405 0.01288,-0.51421 0.01413,-0.49077 0.101383,-0.97721 0.105748,-1.46921 0.04862,-0.48599 0.138364,-0.97184 0.279107,-1.43966 0.107728,-0.33421 0.216339,-0.66498 0.462843,-0.92653 z" />
    <path
       style="fill:#000000;stroke:#000000;stroke-width:0.548;stroke-opacity:1"
       id="path34"
       d="m 104.10628,182.18612 c 0.52585,-0.17381 1.0519,-0.33768 1.59587,-0.44476 0.40121,-0.077 0.80766,-0.0908 1.21444,-0.0767 0.26851,0.0188 0.53749,0.0273 0.80654,0.0339 0.19959,0.0155 0.40391,-0.003 0.60099,0.0352 0.0717,0.0114 0.13899,0.028 0.20324,0.0619 0.0419,0.0149 0.0927,0.002 0.13766,0.003 0.12741,0.0156 0.0728,-0.0476 0.033,-0.12093 -0.0228,-0.0274 -0.0551,-0.0454 -0.079,-0.0717 -0.007,-0.008 0.0399,0.0201 0.0299,0.0152 -0.20066,-0.0981 -0.40095,-0.19699 -0.60142,-0.29548 -0.0328,0.0382 -0.0709,0.0724 -0.0984,0.11447 -0.11721,0.17936 -0.14419,0.29447 -0.2295,0.49807 -0.14288,0.341 -0.29178,0.67972 -0.43593,1.02022 -0.26745,0.65095 -0.52523,1.30769 -0.75392,1.97339 -0.16739,0.56729 -0.34149,1.13144 -0.55321,1.68373 -0.0939,0.19412 -0.17178,0.38873 -0.22362,0.59773 0.005,0.0533 -0.0412,0.11688 -0.0325,0.16888 0.0531,0.31668 0.0186,-0.11494 0.0351,0.13986 0.0228,0.26099 0.30929,0.37387 0.50405,0.50044 0,0 0.13864,0.0712 0.13864,0.0712 v 0 c 0.0733,0.0279 0.38765,0.19715 0.49306,0.13017 0.0261,-0.0166 0.0118,-0.0684 0.0395,-0.084 0.0523,-0.13339 -0.0278,0.043 0.0661,-0.073 0.0324,-0.0401 0.0283,-0.14122 0.0309,-0.18832 -0.01,-0.2252 -5.3e-4,-0.45405 0.0248,-0.67746 0.10708,-0.59358 0.22233,-1.1872 0.39771,-1.76504 0.18709,-0.68962 0.38043,-1.3774 0.5798,-2.06361 0.17902,-0.5761 0.36998,-1.14545 0.59173,-1.70562 -0.84648,-0.72534 -0.25181,-0.26475 -0.60732,-0.48561 -0.11691,-0.0529 -0.23312,-0.1303 -0.3659,-0.12095 -0.0219,5.3e-4 -0.15203,-0.0117 -0.12956,0.004 0.0318,0.0403 0.011,0.0414 -0.0306,0.062 -0.15487,0.0635 -0.35175,-8e-5 -0.51404,0.0258 -0.26067,-0.004 -0.52115,-0.0163 -0.78191,-0.0149 -0.38722,0.005 -0.77184,0.0593 -1.14896,0.14676 -0.53797,0.12761 -1.06881,0.28323 -1.59624,0.44883 z" />
    <path
       style="fill:#000000;stroke:#000000;stroke-width:0.601661;stroke-opacity:1"
       id="path35"
       d="m 89.099183,189.00513 c 0.635541,0.12698 1.264856,0.27678 1.9047,0.38651 0.927956,0.14809 1.874792,0.0716 2.8012,0.018 1.149237,-0.0529 2.283275,-0.18875 3.422174,-0.29938 1.005258,-0.1104 2.020756,-0.15904 3.038713,-0.17767 0.94171,-0.003 1.88425,0.0202 2.82598,0.0183 0.73362,0.01 1.4618,-0.03 2.18942,-0.0795 0.31566,-0.0323 0.63659,-0.017 0.95427,-0.0269 0.0365,-0.003 0.0897,0.0158 0.10866,-0.01 0.0187,-0.0241 -0.0251,-0.0552 -0.0375,-0.0828 -0.0631,-0.0626 -0.12606,-0.1253 -0.1891,-0.18794 0,0 -0.34003,-0.21892 -0.34003,-0.21892 v 0 c -0.0995,-0.0525 -0.19892,-0.10495 -0.29838,-0.15735 -0.0666,-0.0259 -0.1291,-0.0608 -0.19961,-0.0776 -0.0541,-0.0137 -0.2306,0.0106 -0.27433,0.0147 -0.24255,0.0238 -0.48548,0.0453 -0.72794,0.0695 -0.71064,0.0644 -1.42469,0.0988 -2.14312,0.10008 -0.91712,0.0194 -1.83499,0.0283 -2.753179,0.0315 -1.02327,0.004 -2.042583,0.0443 -3.046133,0.18658 -1.12898,0.13334 -2.262852,0.24224 -3.405426,0.30265 -0.942205,0.042 -1.893894,0.0607 -2.835623,-0.0723 -0.612828,-0.0792 -1.230995,-0.15506 -1.815854,-0.34177 z" />
    <path
       style="fill:#000000;stroke:#000000;stroke-width:0.636438;stroke-opacity:1"
       id="path36"
       d="m 93.279122,184.85855 c 0.181351,-0.1195 0.07025,-0.0731 0.345488,-0.12462 0,0 -0.124205,-0.0609 -0.124205,-0.0609 v 0 c -0.494643,-0.0341 -0.23693,-0.009 -0.772016,-0.0828 z" />
    <path
       style="fill:#000000;stroke:#000000;stroke-width:0.636438;stroke-opacity:1"
       id="path37"
       d="m 98.618718,184.41105 c 0.06473,-0.0138 0.129467,-0.0276 0.19423,-0.0414 0.05924,-0.0275 0.109484,-0.0678 0.177835,-0.0826 0.100056,-0.0219 0.208753,-0.0162 0.313125,-0.0243 0,0 -0.124824,-0.0603 -0.124824,-0.0603 v 0 c -0.104559,0.008 -0.208485,0.0253 -0.313706,0.0242 -0.13946,-0.002 -0.277273,-0.0211 -0.415912,-0.0317 -0.09091,7.7e-4 -0.181846,9.6e-4 -0.272769,0.002 z" />
    <path
       style="fill:#000000;stroke:#000000;stroke-width:0.548;stroke-opacity:1"
       id="path38"
       d="m 102.21483,184.45276 c 0.15515,-0.0159 0.30388,-0.0476 0.45948,-0.0625 0,0 -0.0878,-0.0641 -0.0878,-0.0641 v 0 c -0.21511,-0.024 -0.42903,-0.0575 -0.64504,-0.072 z" />
    <path
       style="fill:#000000;stroke:#000000;stroke-width:0.636438;stroke-opacity:1"
       id="path39"
       d="m 93.566738,185.98105 c 0.30042,-0.0387 0.800108,-0.0108 1.044912,-0.14952 0.06151,-0.0349 0.08209,-0.0935 0.123135,-0.14033 0,0 -0.125414,-0.0597 -0.125414,-0.0597 v 0 c -0.180621,-0.0195 -0.359506,-0.0491 -0.541863,-0.0584 -0.408737,-0.0209 -0.808475,0.0898 -1.218042,0.053 z" />
    <path
       style="fill:#000000;stroke:#000000;stroke-width:0.636438;stroke-opacity:1"
       id="path40"
       d="m 98.382513,186.10617 c 0.291805,-0.1242 0.131157,-0.12514 0.50637,-0.1597 0,0 -0.124401,-0.0608 -0.124401,-0.0608 v 0 c -0.353331,0.002 -0.665011,-0.0483 -1.01183,-0.0882 z" />
    <path
       style="fill:#000000;stroke:#000000;stroke-width:0.636438;stroke-opacity:1"
       id="path41"
       d="m 102.92493,186.04283 c 0.0127,-0.0368 0.0255,-0.0736 0.0381,-0.11044 0,0 -0.12356,-0.0615 -0.12356,-0.0615 v 0 c -0.16848,-0.041 -0.33694,-0.0821 -0.50541,-0.12306 z" />
    <path
       style="fill:#000000;stroke:#000000;stroke-width:0.548;stroke-opacity:1"
       id="path42"
       d="m 117.72071,124.85511 c -0.33692,-0.16143 -0.66072,-0.34758 -0.98201,-0.53768 1.50128,0.94013 0.82858,0.47333 0.52314,0.21743 -0.18707,-0.15672 -0.37038,-0.31786 -0.55386,-0.47874 -0.53357,-0.50739 -1.08482,-0.98835 -1.67843,-1.42436 -0.84119,-0.57699 -1.74481,-1.06537 -2.6378,-1.55322 -0.10526,-0.0575 -0.74025,-0.34718 -0.86271,-0.38984 -0.15572,-0.0542 -0.31805,-0.0872 -0.47708,-0.13083 -0.43339,-0.0816 -0.70332,-0.15203 -1.15548,-0.15021 -1.15792,0.005 -2.28298,0.37381 -3.37434,0.71643 -1.17963,0.42507 -2.29087,1.01796 -3.36735,1.65607 -0.25634,0.15195 -0.51675,0.29833 -0.76152,0.46829 -0.26715,0.1855 -0.51471,0.39773 -0.77206,0.59659 -0.25475,0.21647 -0.51578,0.42577 -0.76425,0.64942 -0.35539,0.31987 -1.082527,1.03713 -1.421964,1.38629 -0.38047,0.39138 -0.778497,0.81706 -1.119714,1.24539 -0.15049,0.1889 -0.28674,0.38872 -0.43012,0.58308 -0.760954,1.20122 -1.200151,2.5548 -1.546501,3.92315 -0.347297,1.52038 -0.450527,3.08416 -0.509017,4.63856 -0.0274,1.48489 0.0956,2.97644 0.43128,4.42409 0.220927,0.99096 0.781684,1.80629 1.436561,2.55898 0.413467,0.43414 0.881464,0.81706 1.401091,1.11786 1.966734,1.13849 1.347094,0.84107 2.422984,1.33222 0.87134,0.38932 1.81826,0.50268 2.76219,0.53747 0.88458,0.0279 1.76212,-0.0581 2.63689,-0.17546 0.39729,-0.0521 0.79591,-0.10371 1.1972,-0.10229 0.1192,0.003 0.23826,0.008 0.35742,0.0115 0.18897,-0.002 0.37783,-0.0335 0.56407,-0.0654 0.0853,-0.002 0.1729,-0.0596 0.25921,-0.0408 0.0231,-0.002 0.0422,0.009 0.0609,0.0194 -0.0268,0.017 0.0388,-0.006 0.0589,-0.007 0.0361,7.9e-4 0.0725,-0.005 0.10802,-8e-4 0.0377,-0.003 0.0784,-0.0145 0.11679,-0.0232 0.47356,-0.16416 0.94779,-0.32329 1.43773,-0.43341 0.64155,-0.1104 1.28725,-0.19908 1.93446,-0.26915 0.76497,-0.0759 1.53353,-0.0949 2.30168,-0.1016 0.76919,5.3e-4 1.53838,-0.004 2.30755,-0.01 0.6572,-0.003 1.3141,0.004 1.96925,-0.0541 0.66042,-0.0634 1.31835,-0.13728 1.98011,-0.18683 1.01517,-0.0902 2.0271,-0.21767 3.04006,-0.33114 0.86433,-0.0864 1.72947,-0.18419 2.59808,-0.21028 0.66319,-0.0262 1.32784,-0.026 1.99151,-0.0202 0.57765,-0.0137 1.15519,0.0104 1.73267,0.0216 0.36604,0.009 0.73221,0.007 1.09832,0.0112 0.24082,0.0159 0.48135,-0.003 0.72192,-0.0124 -0.51172,-0.38163 -0.1969,-0.15945 -0.9625,-0.64022 0,0 0.44297,0.18413 0.44297,0.18413 v 0 c -0.85047,-0.56191 -0.47176,-0.32673 -1.12719,-0.71969 -0.21963,0.0288 -0.44042,0.0306 -0.6616,0.0356 -0.35617,0.004 -0.7124,0.002 -1.06851,0.0102 -0.55959,0.0101 -1.11924,0.0325 -1.67898,0.0179 -0.66246,0.007 -1.32479,0.009 -1.98705,0.0338 -0.26279,0.0166 -0.52635,0.02 -0.789,0.0388 -0.5964,0.0426 -1.18818,0.14835 -1.783,0.20616 -1.03363,0.12948 -2.07031,0.2382 -3.11237,0.26689 -0.69153,0.0346 -1.38276,0.0761 -2.0736,0.12234 -0.6509,0.0371 -1.30243,0.0682 -1.95462,0.0466 -0.77551,-0.007 -1.55116,-0.0148 -2.32664,-5.3e-4 -0.78075,0.0127 -1.56342,0.0155 -2.34074,0.0978 -0.65909,0.0726 -1.32187,0.13263 -1.97044,0.27549 -0.5054,0.12658 -1.01089,0.30735 -1.53501,0.32149 -0.0469,-0.004 -0.0952,-0.008 -0.14132,-0.0137 -0.035,0.007 -0.074,-0.004 -0.1101,-0.001 -0.0491,-0.002 -0.0481,-0.0194 -0.0733,-0.008 -0.0159,0.008 -0.0357,0.028 -0.062,0.0271 -0.0798,0.031 -0.16035,0.0482 -0.24491,0.063 -0.1639,0.0363 -0.327,0.071 -0.49642,0.0597 -0.11072,0.002 -0.22071,0.008 -0.32939,0.0326 -0.36046,0.0686 -0.7234,0.12381 -1.08162,0.20427 -0.81857,0.16309 -1.65085,0.25916 -2.48702,0.23198 -0.96834,-0.0668 -1.89085,-0.20791 -2.7741,-0.63708 -0.820284,-0.39146 -0.528397,-0.26619 0.8445,0.54215 0.12733,0.075 -0.25691,-0.14628 -0.38146,-0.22578 -0.28622,-0.1827 -0.45248,-0.3082 -0.707367,-0.53033 -0.11669,-0.10169 -0.22754,-0.2099 -0.341307,-0.31485 -0.711307,-0.7589 -1.227524,-1.51622 -1.552784,-2.51584 -0.167207,-0.54056 -0.220927,-0.66514 -0.331917,-1.23963 -0.204017,-1.05607 -0.252557,-2.13295 -0.257387,-3.20605 0.0317,-1.55182 0.115447,-3.1055 0.463297,-4.62413 0.314017,-1.36264 0.674884,-2.72473 1.447711,-3.9114 0.328217,-0.49794 0.477887,-0.74482 0.849364,-1.22375 0.78378,-1.0105 1.689,-1.91862 2.70523,-2.6961 1.51845,-1.07021 3.10366,-2.06688 4.86442,-2.69162 0.29628,-0.0937 0.58858,-0.20112 0.88885,-0.28115 1.24191,-0.33101 2.54035,-0.42247 3.78724,-0.0707 0.44951,0.14832 0.46882,0.14068 0.87414,0.32279 0.14169,0.0637 0.54654,0.29163 0.42055,0.20077 -0.27355,-0.19728 -0.58149,-0.3421 -0.86652,-0.5224 -0.29371,-0.18579 1.18771,0.68898 0.88824,0.54597 0.60437,0.44429 1.16844,0.9326 1.72686,1.43266 0.69656,0.57262 1.41908,1.09289 2.23455,1.49353 0.19802,0.10253 0.39746,0.1837 0.61603,0.23105 z" />
    <path
       style="fill:#000000;stroke:#000000;stroke-width:0.548;stroke-opacity:1"
       id="path43"
       d="m 117.8666,124.94047 c -0.13496,-0.0715 -0.26417,-0.15512 -0.40489,-0.2145 -0.0471,-0.0199 0.0805,0.0632 0.12086,0.0947 0.21179,0.16479 0.41321,0.33081 0.60499,0.5189 0.31394,0.3334 0.51139,0.75146 0.72487,1.15138 0.1711,0.3351 0.38999,0.64144 0.60215,0.95105 0.0419,0.0774 0.10803,0.14103 0.15136,0.21737 0.0159,0.0281 0.0144,0.0548 0.0328,0.0822 0.003,0.0122 0.005,0.035 0.0155,0.0451 0.005,0.005 0.0118,0.005 0.0177,0.008 0.0128,0.006 0.0284,0.007 0.0383,0.017 0.18049,0.18131 0.21989,0.26311 0.37485,0.48709 0,0 0.38255,0.19551 0.38255,0.19551 v 0 c 0.0689,-0.0303 0.13749,-0.0612 0.2067,-0.0908 0.11274,-0.0481 0.28959,-0.11018 0.0872,-0.17405 -0.0964,-0.13107 -0.24549,-0.22135 -0.32914,-0.36463 -0.24557,-0.31466 -0.49626,-0.62777 -0.69143,-0.97734 -0.25843,-0.42879 -0.49628,-0.87774 -0.8557,-1.23342 -0.43705,-0.45337 -0.97411,-0.77369 -1.52551,-1.07305 z" />
    <path
       style="fill:#000000;stroke:#000000;stroke-width:0.548;stroke-opacity:1"
       id="path44"
       d="m 120.79108,126.71254 c 0.31737,-0.46314 0.6789,-0.90362 1.08326,-1.29417 0.36557,-0.35307 0.59749,-0.51444 1.00561,-0.8317 1.55222,-1.08226 3.3561,-1.40743 5.18961,-1.66593 1.26569,-0.13882 2.54369,-0.13757 3.79904,0.0892 0.70595,0.12755 0.87515,0.19823 1.55369,0.40087 0.72508,0.25556 1.43403,0.5609 2.11255,0.92309 0.23412,0.12498 0.47292,0.24401 0.69165,0.39431 0.0721,0.0495 -0.30661,-0.15258 -0.24689,-0.0887 0.18565,0.19856 0.42559,0.3383 0.63839,0.50745 1.4938,1.32551 2.05914,3.13621 2.56042,5.00127 0.57038,2.02119 0.7927,4.1088 0.99827,6.19114 0.13667,1.56298 0.23005,3.12954 0.23412,4.69865 -0.0453,0.49281 0.0578,1.14309 -0.0931,1.62077 -0.073,0.23124 -0.1788,0.32061 -0.33065,0.5028 -0.75867,0.6537 -1.73672,0.94538 -2.69026,1.18331 -0.95942,0.20794 -1.94117,0.24907 -2.91916,0.2688 -0.70472,0.0416 -1.40301,-0.10537 -2.10607,-0.0888 -0.11256,0.29446 -0.38865,0.18875 -0.62705,0.26586 -0.0551,0.0178 -0.32425,0.20727 -0.36746,0.23685 0,0 0.0897,0.0616 0.0897,0.0616 v 0 c 0.63246,-0.0305 0.0455,-0.0109 0.68512,-0.006 0.0866,5.3e-4 0.17351,-0.0128 0.25986,-0.006 0.40779,0.0337 0.78809,0.21229 1.16851,0.34481 0.73387,0.14063 1.47674,0.2006 2.2241,0.15026 0.96452,-0.0324 1.9304,-0.1003 2.86748,-0.34984 0.54977,-0.15033 1.08038,-0.31636 1.60377,-0.54486 0.28066,-0.12253 0.61222,-0.27345 0.86199,-0.45984 0.10444,-0.0779 0.19156,-0.17673 0.28734,-0.26511 0.0624,-0.0982 0.13987,-0.18822 0.18711,-0.2945 0.274,-0.61645 0.0508,-1.40286 0.0429,-2.0436 -0.14091,-1.61315 -0.30121,-3.22413 -0.48808,-4.83266 -0.21403,-2.08105 -0.46277,-4.16285 -0.97172,-6.19637 -0.41308,-1.5327 -0.84789,-3.18069 -1.87528,-4.43644 -0.17572,-0.21479 -0.38935,-0.39555 -0.58402,-0.59333 -0.21386,-0.17316 -0.41305,-0.36621 -0.64158,-0.51948 -1.38897,-0.93151 -2.85533,-1.76781 -4.44631,-2.2985 -0.65536,-0.17869 -0.83093,-0.24704 -1.51091,-0.34807 -1.23021,-0.18279 -2.47879,-0.131 -3.71055,0.006 -0.34463,0.0442 -0.69095,0.0768 -1.03389,0.13267 -1.23367,0.20085 -2.48676,0.55324 -3.60489,1.1215 -0.22976,0.11677 -0.44379,0.2622 -0.66569,0.3933 -0.19495,0.13803 -0.39694,0.26662 -0.58486,0.41409 -0.60731,0.47659 -1.16776,1.06127 -1.62193,1.68555 z" />
    <path
       style="fill:#000000;stroke:#000000;stroke-width:0.548;stroke-opacity:1"
       id="path46"
       d="m 111.02943,130.14615 c -0.0207,-0.19377 -0.0506,-0.4009 -0.009,-0.59431 0.0124,-0.0995 0.0276,-0.11002 0.11659,-0.13616 0.18387,-0.0678 0.38291,-0.077 0.57669,-0.089 0.25059,-0.0157 0.50265,-0.0187 0.75273,-0.0419 0.1836,-0.009 0.36189,-0.0382 0.54193,-0.0724 0.21152,-0.0457 0.41866,-0.1084 0.63048,-0.15268 0.24495,-0.0457 0.49157,-0.0739 0.74037,-0.0854 0.18147,0.006 0.37556,-0.0402 0.54792,0.0297 0.49897,0.29631 -0.46033,-0.27397 -1.16463,-0.65779 -0.0329,-0.0179 0.0606,0.0449 0.0855,0.0728 0.11424,0.12837 0.1818,0.29433 0.25278,0.44796 0.11136,0.27942 0.22139,0.56005 0.28581,0.85447 0.0212,0.08 0.0163,0.16324 0.0266,0.24405 0.018,-0.10641 0.58038,0.3381 0.65314,0.38982 0,0 0.0968,0.0496 0.0968,0.0496 v 0 c 0.088,0.0314 0.17938,0.0548 0.26416,0.0942 0.0558,0.026 0.39993,0.36246 0.39368,0.16149 -0.018,-0.0998 -0.058,-0.19491 -0.0836,-0.29306 -0.0882,-0.30324 -0.18766,-0.60203 -0.31152,-0.89296 -0.33436,-0.8064 -0.45248,-1.11825 -1.71137,-1.39195 -0.1855,-0.0102 -0.37133,0.003 -0.55642,0.0163 -0.2544,0.0211 -0.50779,0.0475 -0.75808,0.0997 -0.21221,0.0459 -0.42067,0.10878 -0.63526,0.14352 -0.17504,0.0298 -0.35145,0.0483 -0.5279,0.0678 -0.24348,0.0262 -0.4883,0.0396 -0.73295,0.0491 -0.214,0.0133 -0.42891,0.0348 -0.63055,0.11304 -0.12443,0.0638 -0.1895,0.14854 -0.18721,0.29209 0.0139,0.2157 0.0807,0.42789 0.0698,0.64601 z" />
    <path
       style="fill:#000000;stroke:#000000;stroke-width:0.548;stroke-opacity:1"
       id="path47"
       d="m 117.14957,131.4856 c 0.42052,-0.22653 0.88855,-0.32988 1.3561,-0.40478 0.41517,-0.0537 0.83471,-0.0568 1.2527,-0.0545 0.30916,-7.9e-4 0.61826,0.0103 0.92738,0.006 0.30903,0.006 0.61814,0.004 0.92722,0.006 0.25481,0.002 0.50948,8e-4 0.76427,0.005 0.12339,0.0226 0.29319,-0.027 0.40752,0.0409 0.0419,0.0249 0.0773,0.0593 0.116,0.089 0.37079,0.38972 0.0683,0.0636 -1.13542,-0.70089 0,0 0.7134,0.34687 0.7134,0.34687 v 0 c -1.2235,-0.9135 -1.34603,-1.39244 -1.20268,-0.86783 0.0196,0.0265 0.0444,0.0498 0.0587,0.0794 0.0236,0.049 -0.27049,0.0351 -0.29485,0.0409 -0.25068,0.004 -0.50121,0.003 -0.7519,0.004 -0.30469,0.002 -0.60938,-0.001 -0.91406,0.003 -0.30625,-0.006 -0.61273,-10e-5 -0.91898,0.004 -0.40834,0.0141 -0.81658,0.0372 -1.21945,0.10952 -0.48636,0.0949 -0.95497,0.24721 -1.42684,0.39655 z" />
    <path
       style="fill:#000000;stroke:#000000;stroke-width:0.548;stroke-opacity:1"
       id="path48"
       d="m 74.284736,151.53991 c 0.479555,0.25625 0.960847,0.50943 1.455144,0.73623 0.479194,0.24306 0.985875,0.4151 1.512664,0.51565 0.534935,0.10886 1.066321,0.0464 1.598304,-0.039 0.631558,-0.10212 1.254059,-0.25153 1.873679,-0.40912 0.691105,-0.17593 1.393331,-0.29994 2.099469,-0.39609 0.789762,-0.10736 1.58643,-0.14472 2.377854,-0.23508 1.083369,-0.11967 2.171742,-0.1828 3.257368,-0.27749 1.20947,-0.0968 2.423357,-0.14336 3.636416,-0.16382 1.170202,0.006 2.33806,-0.007 3.505039,-0.0966 1.521747,-0.20886 3.045992,-0.39302 4.574257,-0.54712 1.40495,-0.14913 2.81805,-0.14523 4.22875,-0.14348 1.35644,0.0263 2.70909,0.14247 4.06116,0.24748 0.78864,0.0506 1.57978,0.14289 2.37157,0.11987 0.11279,-0.003 1.17827,-0.0781 1.27091,-0.0845 1.20102,-0.0941 2.40008,-0.20294 3.60355,-0.26146 1.09739,-0.0439 2.19585,0.002 3.29205,0.0547 1.38174,0.0939 2.76005,0.24229 4.13865,0.37629 0.91059,0.0737 1.81632,0.22025 2.72903,0.27019 0.50829,0.028 0.82498,0.017 1.33819,0.013 1.34966,-0.045 2.70017,-0.0686 4.04865,0.0133 0.88064,0.0534 1.75637,0.18013 2.63801,0.21992 0.41192,0.019 1.24435,0.0165 1.65305,0.018 0.2653,-0.003 0.53061,-0.003 0.79587,-0.008 0.5454,-0.009 0.83785,-0.0127 1.37464,-0.0708 0.66136,-0.0715 1.31405,-0.2062 1.96623,-0.33312 1.31958,-0.35706 2.68335,-0.51069 4.04541,-0.57977 0.6564,-0.0189 1.31437,-0.0171 1.97058,0.01 0.32769,-0.009 0.6528,0.0246 0.97705,0.0656 0.22619,0.0505 0.4564,0.0705 0.68627,0.0949 0.25957,-0.0154 0.51537,0.0875 0.77262,0.0751 -0.0939,-0.0898 -0.1879,-0.17939 -0.28184,-0.26908 0,0 -0.54576,-0.43733 -0.54576,-0.43733 v 0 c -0.13203,-0.0916 -0.26407,-0.18305 -0.39608,-0.27459 -0.22675,-0.0294 -0.45937,0.0377 -0.68684,-0.0148 -0.22758,-0.0188 -0.45126,-0.0628 -0.6777,-0.0909 -0.3276,-0.0315 -0.65831,-0.0194 -0.98567,-0.058 -0.63478,-0.02 -1.26914,-0.0219 -1.90013,0.0673 -1.36625,0.16801 -2.72132,0.41374 -4.09001,0.56181 -1.34085,0.22738 -2.68538,0.45384 -4.05085,0.44673 -0.8012,-0.008 -0.87984,0.005 -1.68276,-0.0558 -0.91315,-0.0694 -1.81898,-0.21262 -2.73167,-0.28667 -1.32936,-0.0199 -2.65808,0.0496 -3.98759,0.0416 -1.31945,-0.0216 -2.63719,-0.0935 -3.95208,-0.20654 -1.3668,-0.13419 -2.72936,-0.33917 -4.10531,-0.34003 -1.08393,-0.03 -2.16881,-0.0602 -3.25273,-0.009 -1.18382,0.071 -2.35985,0.22919 -3.54307,0.3096 -1.20787,0.06 -2.41823,0.0578 -3.62453,-0.0388 -1.34792,-0.0918 -2.69436,-0.22077 -4.04649,-0.22818 -1.40796,-0.0372 -2.81429,0.0262 -4.215878,0.16796 -1.550528,0.1432 -3.087025,0.41856 -4.644563,0.48659 -1.171913,0.0389 -2.344268,0.065 -3.516719,0.082 -1.218496,0.019 -2.435693,0.0624 -3.650714,0.16137 -1.105371,0.0756 -2.211077,0.14641 -3.315703,0.23246 -0.81039,0.0408 -1.618418,0.11162 -2.424204,0.20778 -0.704492,0.0976 -1.400749,0.23587 -2.088015,0.42031 -0.625125,0.14097 -1.250854,0.27882 -1.881951,0.39083 -0.518003,0.0822 -1.037415,0.11902 -1.556866,0.0179 -0.461396,-0.0821 -0.911391,-0.21215 -1.339394,-0.40572 -0.418391,-0.19018 -0.838835,-0.37724 -1.253678,-0.57415 z" />
    <path
       style="fill:#000000;stroke:#000000;stroke-width:0.610195;stroke-opacity:1"
       id="path49"
       d="m 94.009522,152.71367 c 0.202748,0.73915 0.428411,1.46641 0.622145,2.20989 0.181571,0.73073 0.37772,1.45444 0.550347,2.18915 0.118342,0.49104 0.164103,0.99821 0.195798,1.50934 0.0077,0.42628 0.04209,0.85052 0.05397,1.27661 0.01545,0.26795 -0.0099,0.53645 0.0097,0.80366 0.01274,0.13167 0.01545,0.2652 0.0308,0.3964 0.02385,0.12586 0.377105,0.30081 0.479913,0.36937 0,0 0.09403,0.062 0.09403,0.062 v 0 c 0.08669,0.0559 0.251561,0.16209 0.323881,0.20749 0.08061,0.0506 0.154275,0.15379 0.142719,0.0399 -0.01554,-0.1362 -0.04885,-0.26801 -0.05976,-0.40542 -0.01902,-0.27382 -0.02771,-0.54922 -0.04673,-0.82323 -0.0278,-0.4346 -0.05011,-0.86974 -0.08399,-1.30366 -0.0531,-0.54615 -0.158242,-1.07899 -0.290312,-1.60074 -0.190652,-0.75201 -0.408018,-1.49022 -0.617061,-2.23338 -0.18344,-0.70455 -0.387637,-1.40483 -0.509319,-2.13392 z" />
    <path
       style="fill:#000000;stroke:#000000;stroke-width:0.548;stroke-opacity:1"
       id="path50"
       d="m 119.7561,148.73063 c -0.0313,-0.34035 -0.0175,-0.68391 -5.3e-4,-1.02487 -0.007,-0.31994 -0.0533,-0.63671 -0.0939,-0.95353 -0.0258,-0.16307 -0.0612,-0.32426 -0.0737,-0.48911 -0.008,-0.15742 -0.0299,-0.31347 -0.0597,-0.46807 -0.0285,-0.20843 -0.0922,-0.4074 -0.17186,-0.60121 -0.0589,-0.13185 -0.11823,-0.26348 -0.17676,-0.39549 -0.049,-0.19081 -0.72002,-0.35654 -0.84174,-0.39755 0,0 0.0962,0.0508 0.0962,0.0508 v 0 c -0.10165,-0.0526 -0.62696,-0.32936 -0.77964,-0.39402 -0.0215,-0.009 0.0531,0.12597 0.0299,0.0632 0.0741,0.13723 0.15202,0.2722 0.2269,0.40892 0.0829,0.18601 0.1648,0.37177 0.19634,0.57552 0.0297,0.15076 0.049,0.29646 0.0484,0.44994 0.0292,0.1795 0.0655,0.35769 0.12613,0.52973 0.091,0.31232 0.12091,0.6381 0.17336,0.95837 0.0163,0.34076 0.0318,0.68443 -5.3e-4,1.02443 z" />
    <path
       style="fill:#000000;stroke:#000000;stroke-width:0.548;stroke-opacity:1"
       id="path51"
       d="m 92.579786,152.18319 c 0.411014,-0.22319 0.878348,-0.33489 1.32915,-0.45266 0.468932,-0.12217 0.951932,-0.1567 1.434077,-0.17445 0.279197,-0.0108 0.558727,-0.002 0.837674,0.0112 0.11175,0.006 0.22354,0.0122 0.335467,0.0118 0.0908,0.003 0.18236,-0.003 0.27292,0.004 0.0268,-2.4e-4 0.0531,0.004 0.0796,0.007 -2.100865,-1.46104 -1.187114,-1.33315 -2.42667,-1.06329 -0.321146,0.0646 -0.636053,0.15578 -0.942586,0.27089 -0.297707,0.0987 -0.577387,0.24071 -0.871617,0.3486 -0.271222,0.10394 -0.543544,0.20624 -0.822672,0.28717 -0.104918,0.0229 -0.197398,0.0543 -0.274153,0.13055 -0.04953,0.0549 -0.0667,0.12468 -0.07936,0.19545 0,0 2.219804,0.89716 2.219804,0.89716 v 0 c -0.01333,0.0586 -0.02737,0.12071 -0.07243,0.16398 0.01569,-0.006 0.12147,-0.0581 0.156014,-0.0693 0.265298,-0.11296 0.543663,-0.19275 0.806088,-0.31272 0.28113,-0.12981 0.571111,-0.23797 0.860981,-0.34644 0.305047,-0.11336 0.621274,-0.17776 0.939914,-0.24088 1.089414,-0.30848 1.116434,0.004 -1.086024,-1.41814 -0.0204,0.002 -0.0403,0.008 -0.0612,0.007 -0.0864,0.009 -0.17447,-2.6e-4 -0.26114,0.003 -0.103284,-10e-4 -0.206548,0.002 -0.30968,0.007 -0.260758,0.0128 -0.521475,0.0263 -0.781997,0.0436 -0.477063,0.0414 -0.951767,0.11451 -1.416619,0.23083 -0.468463,0.129 -0.926767,0.28913 -1.383424,0.45469 z" />
    <path
       style="fill:#ff0000;stroke:#000000;stroke-width:0.548;stroke-opacity:1"
       id="path52"
       d="m 116.63505,148.81957 c -0.2395,0.068 -0.48916,0.0464 -0.73331,0.0663 -0.19924,0.0163 -0.38914,0.0675 -0.577,0.13176 -0.90383,0.16637 -0.59758,-0.043 0.98709,1.05516 0.47864,-0.0212 0.95685,-0.0512 1.43581,-0.0679 0.55868,-0.0112 1.11688,-0.027 1.67499,-0.0548 0.45114,-0.0221 0.90242,-0.0385 1.3541,-0.0377 0.34388,0.002 0.68774,-0.006 1.0316,-0.002 0.25516,-0.0139 0.51134,-0.005 0.76681,-5.3e-4 0.1244,0.017 0.29431,0.0157 0.39768,0.0986 -1.647,-1.17244 -1.19033,-1.35175 -2.3247,-1.01305 -0.42001,0.13733 -0.8589,0.19043 -1.29553,0.24397 -0.67481,0.0928 -1.36092,0.0308 -2.0327,0.13657 0.0959,0.16016 0.19185,0.32032 0.28778,0.48048 0,0 0.1637,0.11924 0.1637,0.11924 v 0 c 0.34905,0.16328 0.6981,0.32657 1.04715,0.48985 0.15129,0.0171 0.3019,0.0423 0.45388,0.0513 0.59753,0.0355 1.2026,-0.0349 1.79875,-0.0614 0.44236,-0.0571 0.87802,-0.14214 1.3021,-0.28345 1.04854,-0.33084 1.03806,-0.021 -1.04891,-1.36369 0.0353,0.0294 0.002,-0.005 0.003,0.0208 0.004,0.10842 -0.0252,0.0534 -0.13315,0.0776 -0.25646,0.005 -0.51351,0.0124 -0.7697,-0.002 -0.34349,0.003 -0.68709,-0.005 -1.03052,0.006 -0.44632,0.0145 -0.8931,0.0183 -1.33818,0.0587 -0.5493,0.0395 -1.09926,0.0483 -1.64947,0.0692 -0.47592,0.0227 -0.96155,0.073 -1.43491,0.007 1.54806,1.10939 1.02495,1.35896 1.49044,0.72326 0.12379,-0.0819 0.26103,-0.1515 0.38005,-0.23951 0.0464,-0.0343 0.0809,-0.0839 0.13005,-0.11404 0.12434,-0.0763 0.21425,-0.0813 0.35253,-0.10801 z" />
    <path
       style="fill:#000000;stroke:#000000;stroke-width:0.548;stroke-opacity:1"
       id="path59"
       d="m 109.28365,129.05207 c -0.0668,0.40062 -0.11836,0.7983 -0.13394,1.20451 -0.023,0.46261 -0.0466,0.92537 -0.0568,1.38848 -0.002,0.32482 -0.0303,0.64944 -0.004,0.97373 0.052,0.35986 0.11671,0.71785 0.19134,1.07368 0.0549,0.27802 0.11085,0.55541 0.18629,0.8287 0.10477,0.31316 0.19957,0.62774 0.25941,0.95276 0.0681,0.40482 0.14076,0.80883 0.21236,1.21304 0.0682,0.46946 0.1093,0.94259 0.15131,1.415 0.0293,0.29733 0.0233,0.59618 0.0312,0.89435 0.004,0.15436 -0.002,0.30837 -0.0123,0.46228 -0.01,0.032 -0.0108,0.0661 -0.0244,0.0963 0.96978,0.82889 1.09885,0.9574 1.88633,0.93648 0.31803,5.3e-4 0.63601,-5.3e-4 0.95403,-5.3e-4 0.34006,-0.003 0.67934,0.002 1.01906,0.015 0.39087,0.005 0.78157,0.0181 1.17243,0.024 0.3805,-0.002 0.76141,0.007 1.14173,-0.006 0.41872,-0.0381 0.83938,-0.0449 1.25728,-0.0907 0.4583,-0.0299 0.9159,-0.0682 1.37356,-0.10653 0.41834,-0.0467 0.83964,-0.0457 1.25994,-0.0497 0.34521,-0.002 0.6902,0.0109 1.03526,0.0189 0.28019,0.0107 0.56067,0.002 0.84088,0.009 0.27349,0.002 0.54697,-0.002 0.82047,-0.001 0.29474,-0.006 0.58899,-0.0245 0.88399,-0.0273 0.20762,-0.005 0.41532,-0.007 0.62281,0.004 0.0703,0.004 0.14312,0.002 0.20858,0.0311 0.11811,0.0686 0.0181,0.13822 0.19686,-0.13047 0.003,-0.005 -0.0147,0.006 -0.0169,7.9e-4 -0.008,-0.0192 -0.005,-0.0412 -0.008,-0.0617 -0.10675,-0.35415 -0.27817,-0.68116 -0.39802,-1.03184 -0.12299,-0.36416 -0.19746,-0.74005 -0.21559,-1.12363 -0.004,-0.11139 0.005,-0.22089 -0.001,-0.33206 -0.004,-0.1626 -0.003,-0.32518 -0.007,-0.48779 -0.0111,-0.27775 -0.0133,-0.55583 -0.01,-0.83376 2.1e-4,-0.25009 0.008,-0.50008 0.0104,-0.75012 0.0107,-0.27831 0.005,-0.55698 0.003,-0.83542 5.3e-4,-0.28173 0.0286,-0.56186 0.0101,-0.84329 -0.0164,-0.31227 -0.0436,-0.62377 -0.0665,-0.93558 -0.0128,-0.22163 -0.005,-0.44342 -0.005,-0.66504 0.0199,-0.14658 -0.002,-0.29369 -0.0166,-0.4396 -0.01,-0.0768 0.0303,-0.14648 0.0131,-0.22301 0.0168,-0.0492 0.0768,-0.0939 0.0349,0.0447 -0.0246,-0.0777 -5.3e-4,-0.18163 0.002,-0.26624 0.004,-0.0918 0.004,-0.18405 0.0134,-0.27556 -0.004,-0.0311 0.0119,-0.053 0.0222,-0.0786 -0.50417,-0.28091 -1.0548,-0.48352 -1.57684,-0.7161 0,0 0.59098,0.31308 0.59098,0.31308 v 0 c -0.5072,-0.29589 -1.00844,-0.63798 -1.54791,-0.88809 0.005,0.0342 0.0292,0.064 0.0221,0.10099 0.009,0.096 0.009,0.19253 0.0127,0.28882 0.002,0.10665 0.0212,0.21554 0.006,0.32096 -0.0302,0.15387 -0.003,0.0841 0.0969,0.13661 0.007,0.003 0.0276,0.014 0.0356,0.0129 0.01,-0.001 0.0188,-0.0178 0.0272,-0.0124 0.0246,0.0155 0.0176,0.11364 0.0267,0.13579 0.0131,0.15341 0.0433,0.30327 0.084,0.45191 0.006,0.23541 0.0285,0.47053 0.0503,0.70495 0.0254,0.31452 0.0743,0.62624 0.085,0.94187 0.0188,0.28434 0.0514,0.56797 0.0445,0.85381 -0.002,0.27955 -0.007,0.55932 0.003,0.83876 0.003,0.25356 0.0102,0.50708 0.0104,0.76069 0.003,0.27425 0.002,0.54869 -0.0107,0.82272 -0.005,0.15884 -0.006,0.31776 -0.0126,0.47651 -0.009,0.12814 0.0106,0.25129 0.0326,0.37796 0.0686,0.40198 0.12921,0.80786 0.25954,1.19566 0.10005,0.31539 0.19631,0.63308 0.29587,0.94678 0.006,0.0233 -0.0238,0.0892 -0.007,0.0719 0.17104,-0.17705 0.0906,-0.22025 0.18805,-0.12122 8e-4,0.042 -0.1002,0.0238 -0.12686,0.0316 -0.19781,0.0144 -0.39629,0.0143 -0.59424,0.0253 -0.2884,0.0205 -0.57703,0.0393 -0.86639,0.0305 -0.27454,8e-4 -0.54905,-0.003 -0.82359,-0.001 -0.27265,0.007 -0.5456,-0.003 -0.81825,0.008 -0.32458,0.008 -0.64899,0.0212 -0.97348,0.0318 -0.40744,0.0166 -0.81417,0.0495 -1.21906,0.0979 -0.44409,0.0605 -0.89078,0.0938 -1.33777,0.12468 -0.42446,0.0183 -0.8479,0.0569 -1.27272,0.0685 -0.38039,0.006 -0.76064,0.003 -1.14103,-0.002 -0.38981,-0.002 -0.78001,-0.003 -1.16918,-0.0279 -0.34042,-0.0135 -0.68125,-0.008 -1.02189,-0.009 -0.32139,-0.001 -0.64277,-0.005 -0.96417,-0.007 -0.9257,-0.0242 -0.11207,0.1215 1.17551,0.94479 -0.011,-0.0404 -0.0138,-0.0825 -0.0227,-0.12365 -0.01,-0.16293 -0.0166,-0.32584 -0.0234,-0.48895 -0.0184,-0.31945 -0.0867,-0.63285 -0.12172,-0.95059 -0.0543,-0.4735 -0.0661,-0.94962 -0.13716,-1.42091 -0.07,-0.4021 -0.1426,-0.80359 -0.20359,-1.2072 -0.0487,-0.32542 -0.11412,-0.64569 -0.22631,-0.95603 -0.0782,-0.27838 -0.14705,-0.55924 -0.22298,-0.83824 -0.087,-0.34446 -0.14213,-0.69464 -0.1755,-1.04821 -0.0585,-0.32334 -0.0428,-0.65267 -0.0548,-0.97998 -0.008,-0.47199 -0.0286,-0.94398 -0.0136,-1.41609 0.0256,-0.39081 0.0357,-0.79142 0.14459,-1.1695 z" />
    <path
       style="fill:#ffff00;stroke:#000000;stroke-width:0.242162;stroke-opacity:1"
       d="m 111.87685,138.88786 c -0.0273,-0.14469 -0.10843,-0.78921 -0.18028,-1.43227 -0.0719,-0.64305 -0.2873,-1.79736 -0.47874,-2.56512 -0.29555,-1.18521 -0.34809,-1.62234 -0.34809,-2.89599 v -1.50007 l 0.28255,0.0709 c 0.26904,0.0675 0.27965,0.0494 0.22204,-0.38018 l -0.0605,-0.4511 1.0933,-0.14085 c 0.60132,-0.0775 1.19854,-0.1553 1.32715,-0.17296 0.17808,-0.0244 0.24266,0.0446 0.27083,0.28942 0.0259,0.2251 0.1037,0.32153 0.2594,0.32153 0.14145,0 0.19979,0.0589 0.16027,0.16192 -0.0424,0.11054 0.23043,0.30989 0.8598,0.62821 0.50706,0.25646 1.12599,0.59543 1.3754,0.75328 l 0.45347,0.287 0.59035,-0.22826 c 0.4476,-0.17306 0.99324,-0.24277 2.25646,-0.28827 1.57415,-0.0567 1.6666,-0.0478 1.67508,0.16072 0.005,0.1214 0.0525,1.56239 0.10574,3.20219 0.0698,2.15053 0.1472,3.13623 0.27773,3.53682 l 0.18097,0.55537 -1.5436,0.001 c -0.84897,8e-4 -2.41172,0.0791 -3.47277,0.17394 -1.06105,0.0949 -2.67792,0.17314 -3.59305,0.17393 -1.63338,0.001 -1.66479,-0.003 -1.71351,-0.26162 z"
       id="path60" />
    <path
       style="fill:#00ffff;stroke:#000000;stroke-width:0.242162;stroke-opacity:1"
       d="m 101.55226,144.64561 c -1.08422,-0.23566 -1.51818,-0.49041 -2.171964,-1.27501 -1.152204,-1.38273 -1.600311,-2.87385 -1.693271,-5.63457 -0.10567,-3.13834 0.399787,-6.18706 1.354891,-8.17209 1.248534,-2.59488 3.853164,-5.02983 7.118924,-6.65513 1.9273,-0.95919 2.68436,-1.16238 4.35814,-1.1697 1.69127,-0.007 2.39457,0.19876 3.36169,0.98545 0.30532,0.24835 0.94973,0.77445 1.43202,1.1691 0.4823,0.39465 1.25999,0.92987 1.7282,1.18939 0.85004,0.47114 1.22023,0.84387 1.60495,1.61592 0.38728,0.77718 1.35923,1.98709 1.65614,2.06161 0.33489,0.084 0.83306,-0.11016 0.92991,-0.36252 0.0401,-0.10464 -0.14702,-0.4179 -0.47096,-0.78822 -0.62465,-0.71405 -0.67293,-0.86993 -0.19251,-0.6215 0.34443,0.17811 0.34577,0.17746 0.69852,-0.33523 0.51738,-0.75199 1.66908,-1.74718 2.56102,-2.213 2.52202,-1.31713 6.71875,-1.63757 9.43192,-0.72016 1.90054,0.64262 3.28268,1.59176 4.09077,2.8092 1.56237,2.35382 2.63283,7.90312 2.67512,13.86787 0.0179,2.52535 0.0211,2.51704 -1.19457,3.06262 -1.15004,0.51611 -1.97131,0.67773 -3.78576,0.74504 l -1.72204,0.0639 -0.44098,-0.3331 c -0.24254,-0.1832 -0.50535,-0.39561 -0.58402,-0.47203 -0.0787,-0.0764 -0.33207,-0.25575 -0.56308,-0.39853 -0.40779,-0.25202 -0.50759,-0.25903 -3.42301,-0.24019 -2.05515,0.0133 -3.64878,0.0904 -5.04907,0.24435 -2.94865,0.32417 -5.53713,0.46596 -8.51052,0.46618 -2.8018,2.1e-4 -4.29879,0.11933 -5.87061,0.46716 -0.5466,0.12096 -1.3095,0.25288 -1.69534,0.29317 -0.38583,0.0403 -1.30024,0.1751 -2.03201,0.29961 -1.52786,0.25995 -2.57138,0.27456 -3.6025,0.0504 z m 13.76043,-3.85822 c 1.70411,-0.0491 4.54526,-0.10512 6.31367,-0.1245 3.04188,-0.0333 3.22351,-0.0476 3.36745,-0.26425 0.13044,-0.19633 0.10578,-0.33505 -0.17278,-0.9722 l -0.32493,-0.74319 -0.0287,-3.91681 -0.0287,-3.91681 -1.57843,-0.81065 c -1.57624,-0.80952 -1.57872,-0.81031 -1.78709,-0.57006 -0.18988,0.21893 -0.37701,0.24584 -2.07841,0.29887 -1.19202,0.0372 -2.06729,0.12197 -2.41475,0.23397 l -0.54501,0.17569 -0.24951,-0.6843 c -0.32819,-0.9001 -0.70669,-1.32936 -1.37206,-1.55608 -0.63694,-0.21703 -1.16505,-0.23323 -2.03693,-0.0625 -0.34638,0.0678 -1.07095,0.17056 -1.61015,0.22827 -0.69431,0.0743 -1.05251,0.17046 -1.22765,0.32947 -0.13602,0.12349 -0.30891,0.20192 -0.38421,0.17429 -0.20752,-0.0762 -0.33077,1.06461 -0.33077,3.06145 0,1.53056 0.0405,1.91007 0.31839,2.98146 0.43689,1.68454 0.57366,2.54917 0.61955,3.91681 l 0.0392,1.1692 0.49071,0.43816 c 0.26989,0.24099 0.7077,0.4958 0.97291,0.56623 0.26521,0.0704 0.56111,0.16903 0.65757,0.21912 0.0965,0.0501 0.20169,0.052 0.23384,0.004 0.0322,-0.0477 1.45273,-0.1269 3.15683,-0.17599 z"
       id="path61" />
    <path
       style="fill:#0000ff;stroke:none;stroke-width:0.548;stroke-opacity:1"
       id="path64"
       d="m 92.507667,164.89609 c 0.224525,0.70558 0.480319,1.40056 0.73987,2.09385 0.266134,0.73274 0.501497,1.47617 0.765397,2.20974 0.169074,0.45868 0.363609,0.90725 0.525257,1.36868 0.133659,0.42088 0.175601,0.86041 0.224041,1.29692 0.06872,0.5798 0.07753,1.16382 0.07372,1.74689 -0.01164,0.36861 0.0027,0.74015 -0.0522,1.10592 -0.0037,0.0553 -0.01389,0.115 -0.03999,0.16234 2.271885,1.1591 2.093791,1.54084 1.799408,0.22795 -0.170807,-0.79862 -0.415774,-1.58002 -0.670756,-2.35522 -0.25917,-0.76772 -0.506944,-1.5387 -0.716838,-2.32146 -0.115038,-0.45296 -0.225706,-0.90961 -0.24851,-1.37779 -0.0049,-0.27313 -0.01519,-0.54605 -0.0024,-0.81917 -0.0061,-0.24312 0.04233,-0.46081 0.13453,-0.68372 0.221244,-0.44606 0.50257,-0.85875 0.82787,-1.23478 0.225894,-0.26447 0.486395,-0.44942 0.819994,-0.54391 0.528961,-0.10524 1.070714,-0.0961 1.605328,-0.0511 0.623713,0.0581 1.213035,0.23552 1.755472,0.54571 -2.92252,-1.69903 -1.704013,-1.08424 -1.168036,-0.52212 0.205997,0.21604 0.358584,0.44078 0.505978,0.69897 0.269688,0.60708 0.350637,1.26737 0.320961,1.92527 -0.142536,0.72949 -0.502637,1.04503 -1.145132,1.36302 -0.619125,0.24838 -1.287005,0.28384 -1.945564,0.30353 -0.414282,0.0202 -0.82555,-0.007 -1.231521,-0.0896 -0.08746,-0.0215 -0.202052,-0.0363 -0.258604,-0.10979 0.693277,0.52402 1.38643,1.0482 2.079831,1.57205 0.09635,0.0728 0.03905,0.032 0.178703,0.10627 0.05515,0.0293 0.218818,0.12065 0.164734,0.0894 -0.63352,-0.36625 -1.266843,-0.73288 -1.903094,-1.09436 -0.08159,-0.0464 0.159284,0.0992 0.238926,0.14886 0.457047,0.29787 0.86714,0.65878 1.271516,1.02296 0.372764,0.31694 0.728689,0.65207 1.082339,0.98987 0.298527,0.28538 0.624726,0.53921 0.935358,0.81079 0.257376,0.2348 0.511889,0.47254 0.787156,0.68639 0.251739,0.18991 0.522839,0.35106 0.777889,0.53623 0.25417,0.18514 0.4837,0.40161 0.7062,0.6231 0.007,0.008 0.0605,0.0704 0.0704,0.0883 0.005,0.009 -0.005,0.03 0.005,0.0294 0.009,-5.3e-4 0.0106,-0.0153 0.0169,-0.0222 0.0135,-0.0465 0.0272,-0.0934 0.0492,-0.13945 0.008,-0.0116 0.0102,-0.0329 0.0242,-0.0349 0.0345,-0.005 0.074,-0.003 0.10333,0.0163 0.48364,0.31277 0.9516,0.64913 1.4274,0.9737 0,0 -0.41805,-0.32466 -0.41805,-0.32466 v 0 c 0.42803,0.30875 0.84735,0.62995 1.28409,0.92624 0.0292,0.0198 0.0698,0.0213 0.10463,0.0159 0.0146,-0.002 0.0172,-0.024 0.0258,-0.0359 0.0322,-0.0645 0.0492,-0.12336 0.0465,-0.19628 -0.0131,-0.13753 -0.17908,-0.18249 -0.26402,-0.2778 -0.24994,-0.23018 -0.49785,-0.4633 -0.75964,-0.67991 -0.26046,-0.19728 -0.53582,-0.36937 -0.8082,-0.54927 -0.29357,-0.20514 -0.57028,-0.43057 -0.83153,-0.6759 -0.30345,-0.28685 -0.63535,-0.53995 -0.95213,-0.81174 -0.36205,-0.34204 -0.725381,-0.68268 -1.103748,-1.00676 -0.418677,-0.37203 -0.836502,-0.74746 -1.294379,-1.07149 -0.955728,-0.66321 -0.262382,-0.19148 -2.565593,-1.50693 -0.05159,-0.0295 -0.269013,-0.13528 -0.337802,-0.15748 -0.03301,-0.0107 -0.129558,-0.0389 -0.102653,-0.017 0.654328,0.53243 1.330098,1.03797 1.995147,1.55695 0.05786,-0.0341 0.09549,-0.0453 0.171899,-0.0276 0.384982,0.015 0.769721,0.002 1.154441,-0.019 0.667573,-0.048 1.339405,-0.13775 1.952818,-0.42288 0.66195,-0.39889 1.09,-0.77868 1.24386,-1.56975 0.0319,-0.69331 -0.0817,-1.39319 -0.31395,-2.04736 -0.0446,-0.0998 -0.0804,-0.20388 -0.13366,-0.29928 -0.0464,-0.0832 -0.10687,-0.15779 -0.16402,-0.23399 -0.692,-0.92258 -1.657541,-1.34272 -2.716236,-1.89885 -0.563195,-0.26824 -1.157023,-0.4203 -1.78194,-0.45585 -0.580631,-0.04 -1.169035,-0.0626 -1.741969,0.0621 -0.354894,0.13686 -0.639146,0.35368 -0.857962,0.66872 -0.308488,0.40686 -0.591598,0.83177 -0.866007,1.26222 -0.196858,0.30686 -0.227709,0.41586 -0.19408,0.77484 0.01288,0.29102 7.93e-4,0.58356 0.05324,0.87148 0.08029,0.49276 0.159682,0.98498 0.326155,1.45834 0.259662,0.78793 0.524198,1.57414 0.786821,2.36108 0.249629,0.74482 0.48088,1.49869 0.579987,2.28076 0.189614,1.31421 -0.192563,0.52796 2.048902,1.69311 -0.02024,-0.0663 -0.03602,-0.13501 -0.03843,-0.20514 -0.04891,-0.38616 -0.04215,-0.77611 -0.05726,-1.16444 -0.01566,-0.58476 -0.01852,-1.16991 -0.04648,-1.75425 -0.0442,-0.45068 -0.09055,-0.90321 -0.209899,-1.34119 -0.165706,-0.48504 -0.399777,-0.94218 -0.604186,-1.41149 -0.2926,-0.74221 -0.571358,-1.49006 -0.836952,-2.24233 -0.245073,-0.65858 -0.520631,-1.3152 -0.642926,-2.01036 z" />
    <path
       style="fill:#aa0000;stroke:none;stroke-width:0.548;stroke-opacity:1"
       id="path65"
       d="m 117.92462,164.59871 c -0.59744,-0.0707 -1.19774,-0.11477 -1.79796,-0.15603 -0.45396,-0.0479 -0.91073,-0.0828 -1.36671,-0.10806 -0.36612,0.0165 -0.47473,0.21825 -0.62785,0.52232 -0.16072,0.398 -0.18158,0.82815 -0.21306,1.25085 -0.0208,0.4802 0.14095,0.91865 0.37028,1.3312 0.67789,1.02135 1.74062,1.3844 2.81788,2.00497 0.49721,0.22244 1.03332,0.29137 1.57208,0.25376 0.68602,-0.11925 1.35257,-0.32058 1.9579,-0.66709 0.51491,-0.29281 0.91263,-0.71643 1.23287,-1.20765 0.28011,-0.46405 0.32406,-0.84831 0.18973,-1.36778 -0.189,-0.48333 -0.49926,-0.91952 -0.87027,-1.28039 -0.76389,-0.55923 -1.58604,-1.32233 -2.56797,-1.28895 -0.17479,0.006 -0.27028,0.0312 -0.44125,0.0641 -0.34989,0.0804 -0.69632,0.19967 -0.95981,0.45126 -0.0148,0.42551 -0.0452,0.12971 0.51776,0.72643 0,0 0.25001,0.15444 0.25001,0.15444 v 0 c 0.88275,0.31299 0.52472,0.30346 1.03867,0.27501 0.29675,-0.13651 0.57433,-0.32237 0.90449,-0.37461 0.21153,-0.0228 0.40424,-0.0351 0.61294,0.0207 0.0606,0.0162 0.2306,0.0961 0.17715,0.0633 -1.14144,-0.70042 -2.30656,-1.31988 -1.50265,-0.89042 0.41498,0.31543 0.76201,0.72291 0.97722,1.2004 0.18028,0.4715 0.15559,0.78239 -0.0535,1.24199 -0.28161,0.48086 -0.65544,0.87181 -1.1537,1.13416 -0.60634,0.30162 -1.25122,0.54121 -1.93493,0.57087 -0.53053,-0.009 -1.05205,-0.0907 -1.52315,-0.35075 3.08895,1.8033 1.40331,0.91618 0.92133,0.45405 -0.13727,-0.13161 -0.19228,-0.21486 -0.30747,-0.36473 -0.23973,-0.37534 -0.42359,-0.7711 -0.42418,-1.22637 0.005,-0.39574 0.0222,-0.80177 0.17337,-1.17292 0.12863,-0.24361 0.21477,-0.34039 0.49716,-0.34066 0.38144,-0.0164 0.7629,-0.0325 1.14441,-0.0461 0.53311,0.0108 1.06672,0.0456 1.59893,0.011 z" />
    <path
       style="fill:#aa0000;stroke:none;stroke-width:0.548;stroke-opacity:1"
       id="path66"
       d="m 119.95573,157.55903 c -0.004,0.0682 -0.0135,0.13626 -0.0123,0.20456 0.005,0.28946 0.0367,0.39105 0.0804,0.69035 0.0636,0.43594 0.12913,0.86514 0.21837,1.29682 0.19258,0.88916 0.42794,1.76911 0.67347,2.64501 0.17941,0.65249 0.36358,1.30377 0.51134,1.96428 0.11509,0.5738 0.20279,1.15209 0.26388,1.734 0.0571,0.42504 0.0863,0.85271 0.11168,1.28056 0.002,0.20838 0.0212,0.41364 0.0539,0.61895 0.0246,0.10776 0.0251,0.21661 0.0233,0.32621 0.005,0.12436 0.22305,0.1629 0.29572,0.2002 0,0 1.39288,0.71275 1.39288,0.71275 v 0 c 0.0672,0.0328 0.30545,0.22874 0.29187,0.0818 -0.015,-0.12338 -0.0348,-0.24614 -0.0511,-0.36938 -0.0419,-0.2103 -0.098,-0.41728 -0.12162,-0.63128 -0.0527,-0.43751 -0.0751,-0.87899 -0.15987,-1.31271 -0.0866,-0.59287 -0.17397,-1.18553 -0.29687,-1.77225 -0.15707,-0.68036 -0.34843,-1.35214 -0.57809,-2.01177 -0.29294,-0.89312 -0.58787,-1.78604 -0.81923,-2.69769 -0.16423,-0.73084 -0.28761,-1.46694 -0.3994,-2.20714 z" />
    <path
       style="fill:#aa0000;stroke:none;stroke-width:0.548;stroke-opacity:1"
       id="path67"
       d="m 129.00541,164.19057 c -0.32654,-0.14593 -0.66378,-0.25121 -1.02031,-0.28056 -0.51207,-0.005 -0.78884,0.11287 -1.18585,0.41628 -0.37198,0.28958 -0.57915,0.72061 -0.78646,1.1326 -0.17784,0.31068 -0.24718,0.64417 -0.28213,0.99485 -0.0132,0.37257 0.11777,0.70003 0.3448,0.98777 0.71767,0.71196 1.66182,1.24338 2.64981,1.45563 0.30721,0.0525 0.63715,0.1071 0.94282,0.0102 0.12171,-0.0386 0.32082,-0.15518 0.43021,-0.21523 0.41317,-0.28802 0.76654,-0.64841 1.02734,-1.07886 0.23348,-0.42532 0.36601,-0.60554 0.26894,-1.10151 -0.12057,-0.34084 -0.38802,-0.58344 -0.66826,-0.79617 -0.5424,-0.39256 -1.11881,-0.67659 -1.71962,-1.01962 -0.0574,-0.0328 -0.1251,-0.0424 -0.18341,-0.0765 0.489,0.28024 0.97801,0.56048 1.46701,0.84071 -0.0573,-0.0146 -0.079,-0.0665 -0.12732,-0.0919 -0.0288,-0.0307 -0.0504,-0.0316 -0.085,-0.0412 0.0811,0.0449 -0.14923,-0.0616 -0.17871,-0.0672 -1.46024,-0.78037 -1.38358,-0.90031 -1.13203,-0.12325 0.16957,0.48657 0.32282,0.9778 0.52239,1.4532 0.14261,0.31197 0.28509,0.66605 0.60119,0.84351 0.58882,0.33054 1.185,0.64779 1.7775,0.97169 0.47893,0.10242 0.97204,0.11204 1.45923,0.0846 0.35815,-0.0189 0.69955,-0.16608 1.05805,-0.16275 0.11855,0.0237 0.118,0.026 0.22104,0.0397 0.0609,0.008 0.0821,0.008 0.0787,0.002 -0.0138,-0.0224 -0.0377,-0.0369 -0.0588,-0.0525 -0.0963,-0.0708 -0.19553,-0.1375 -0.2933,-0.20625 -0.13217,-0.0906 -0.26435,-0.18121 -0.39653,-0.2718 0,0 -0.47052,-0.31582 -0.47052,-0.31582 v 0 c -0.13382,-0.09 -0.26764,-0.17992 -0.40146,-0.26988 -0.10163,-0.0674 -0.20221,-0.13638 -0.30489,-0.20216 -0.12662,-0.0811 -0.10328,-0.01 -0.10104,0.097 -0.1771,0.20611 -0.59534,0.21641 -0.84097,0.25761 -0.46905,0.0248 -0.94829,0.0134 -1.39835,-0.13512 0.45996,0.27377 0.92365,0.54138 1.3799,0.8213 0.0607,0.0372 -0.13092,-0.0568 -0.19242,-0.0927 -0.0608,-0.0355 -0.12137,-0.0731 -0.17334,-0.12063 -0.17015,-0.15546 -0.2676,-0.38179 -0.38236,-0.57539 -0.24227,-0.48686 -0.43213,-0.9958 -0.63736,-1.49893 -0.19383,-0.39236 -1.05069,-2.04089 -1.58816,-1.20097 -0.0523,-0.005 -0.25907,-0.12685 -0.16464,-0.0126 0.0155,0.0625 0.0216,0.0964 0.0813,0.1332 0.0622,0.0727 -0.0218,-0.0127 0.04,0.0163 0.0235,0.011 0.0361,0.0766 0.0666,0.0816 0.51607,0.29762 1.03213,0.59525 1.54819,0.89288 0.044,0.0167 0.0688,0.0248 0.11115,0.0469 0.0184,0.01 0.0715,0.0419 0.0536,0.0315 -2.48776,-1.44715 -1.74454,-1.04434 -1.23757,-0.70959 0.28467,0.19172 0.57217,0.39333 0.74135,0.70183 0.15511,0.41058 0.0882,0.63886 -0.13368,1.01264 -0.28425,0.39329 -0.6066,0.7542 -1.06245,0.9508 -0.46926,0.19025 -0.86963,0.19476 -1.35816,0.0628 -0.26403,-0.0871 -0.20185,-0.0568 -0.4598,-0.1836 -0.064,-0.0315 -0.25091,-0.13546 -0.18959,-0.0991 2.63752,1.56538 1.69316,1.03823 1.16305,0.65486 -0.2079,-0.22364 -0.32208,-0.51381 -0.33816,-0.81954 0.0117,-0.33441 0.0666,-0.66388 0.17158,-0.98244 0.13799,-0.41094 0.30359,-0.81672 0.6151,-1.12944 0.27211,-0.23221 0.61918,-0.39899 0.98163,-0.40559 0.2841,0.0147 0.55924,0.0676 0.81841,0.19024 z" />
    <path
       style="fill:#aa0000;stroke:none;stroke-width:0.548;stroke-opacity:1"
       id="path68"
       d="m 134.46262,164.28963 c 0.29561,0.51312 0.67386,0.97263 1.03357,1.44126 0.38026,0.52298 0.72237,1.07209 1.0699,1.61697 0.1794,0.28783 0.34917,0.58091 0.53855,0.86235 0.0411,0.0475 0.0202,0.0559 0.0211,0.10548 0.67605,0.28443 1.3521,0.56886 2.02815,0.85328 0.007,-0.34308 0.14226,-0.66486 0.2619,-0.98093 0.30106,-0.57915 0.71537,-1.08201 1.13159,-1.5802 0.28522,-0.32622 0.58835,-0.6482 0.95985,-0.876 0.2609,-0.14658 0.53828,-0.25304 0.8389,-0.25604 0.19041,-0.003 0.37535,-0.0354 0.55674,0.0318 -0.0172,5.3e-4 0.0357,-0.005 0.028,-0.0112 -0.22355,-0.18905 -0.48346,-0.33036 -0.72702,-0.49281 0,0 -1.04781,-0.68473 -1.04781,-0.68473 v 0 c -0.24683,-0.16231 -0.487,-0.33537 -0.74144,-0.48544 -0.005,-0.003 -0.0156,0.008 -0.0171,0.01 0.0909,0.10656 0.0101,0.18303 -0.0621,0.28221 -0.13495,0.21493 -0.43353,0.29382 -0.61052,0.47321 -0.0642,0.0528 -0.22487,0.18278 -0.28206,0.23884 -0.23012,0.22556 -0.38233,0.51307 -0.58818,0.75849 -0.40125,0.52288 -0.79144,1.05479 -1.15519,1.60401 -0.21919,0.28737 -0.41654,0.60449 -0.5051,0.95895 0.67383,0.33189 1.34766,0.66377 2.02149,0.99566 -0.0733,-5.3e-4 -0.14131,-0.0818 -0.19192,-0.12501 -0.25156,-0.26992 -0.44984,-0.5811 -0.65135,-0.88899 -0.37074,-0.5584 -0.7434,-1.11575 -1.13372,-1.66076 -0.35886,-0.4703 -0.7556,-0.91806 -1.06198,-1.42407 z" />
    <path
       style="fill:#1a1a1a;stroke:none;stroke-width:0.566935;stroke-opacity:1"
       id="path69"
       d="m 60.673964,125.03925 c -0.127502,0.67699 0.07099,1.33426 0.240818,1.98003 0.23323,0.86285 0.481323,1.72095 0.728204,2.5794 0.246497,0.83865 0.427996,1.69683 0.5982,2.55622 0.212584,1.09853 0.293876,2.2193 0.346624,3.33767 0.04028,1.28475 0.03089,2.57039 0.0212,3.85557 0.04401,1.32962 -0.03701,2.65575 -0.110232,3.982 -0.07315,1.26552 -0.131229,2.53168 -0.169685,3.79891 -0.012,1.5376 0.123071,3.07132 0.223243,4.60406 0.07695,1.27269 0.163761,2.54286 0.298812,3.81007 0.09949,0.89948 0.19958,1.79848 0.285372,2.69959 0.07995,0.92677 0.08684,1.85775 0.09226,2.78764 0.0191,0.98651 0.02591,1.97338 0.0091,2.95996 -0.0085,1.011 -0.09847,2.0177 -0.207807,3.02098 -0.08278,0.78501 -0.188846,1.56681 -0.262656,2.3529 -0.01348,0.48488 -0.06948,0.9656 -0.108962,1.44835 -0.02156,0.23033 -0.04709,0.45867 -0.09069,0.68451 -0.03006,0.13856 -0.04362,0.27846 -0.05376,0.42118 -0.0284,0.33023 -0.01917,0.6623 -0.0282,0.99336 -0.02091,0.26717 -0.0017,0.54051 -0.04853,0.80468 0.0056,0.10628 -0.07269,0.18736 -0.05966,0.28434 0.01176,0.22875 0.01645,0.4581 0.0075,0.68704 0.0071,0.18453 -0.01493,0.36612 -0.03202,0.54888 -0.01649,0.10157 0.03595,0.11308 0.130522,0.1592 0.572959,0.27939 1.148472,0.55274 1.722708,0.82911 -0.174563,-0.16545 -0.349126,-0.33091 -0.523689,-0.49637 0,0 -0.181088,-0.0988 -0.181088,-0.0988 v 0 c -0.174563,-0.0249 -0.349126,-0.0499 -0.523689,-0.0748 0.574236,0.34994 1.14701,0.70265 1.722708,1.04983 0.103048,0.0622 0.145716,0.0975 0.130524,-0.0168 -0.01649,-0.19444 -0.0383,-0.38788 -0.03201,-0.58379 -0.0085,-0.22628 -0.0049,-0.45298 0.0074,-0.67902 0.01779,-0.11446 -0.07248,-0.22888 -0.06024,-0.3498 -0.04223,-0.28185 -0.03111,-0.56979 -0.04633,-0.85416 -0.0046,-0.32661 0.0086,-0.653 0.01764,-0.97942 0.01012,-0.15521 0.04895,-0.30579 0.02002,-0.45767 -0.03539,-0.2477 -0.0495,-0.4972 -0.04673,-0.74838 0.0095,-0.49457 0.01454,-0.98921 0.03762,-1.48336 0.03024,-0.79706 0.104544,-1.589 0.19711,-2.38033 0.0888,-1.01149 0.186835,-2.02198 0.218078,-3.03812 0.01335,-0.98427 0.0032,-1.96881 0.01628,-2.95313 -0.01347,-0.93731 -0.03483,-1.87516 -0.09653,-2.81043 -0.06701,-0.91332 -0.177733,-1.82226 -0.313627,-2.72675 -0.195785,-1.28748 -0.341191,-2.5826 -0.458181,-3.88096 -0.05138,-0.59116 -0.100466,-1.08484 -0.126778,-1.6793 -0.04212,-0.95155 -0.02598,-1.90476 -0.01398,-2.85673 8.46e-4,-1.27643 0.01297,-2.55374 0.09762,-3.82753 0.08182,-1.3348 0.0955,-2.66949 0.09147,-4.00704 -0.01035,-1.29201 -0.01801,-2.58413 -0.04344,-3.87591 -0.02245,-1.11454 -0.05467,-2.2293 -0.251618,-3.32797 -0.177407,-0.89072 -0.418425,-1.76348 -0.689758,-2.62655 -0.282178,-0.89944 -0.618162,-1.77795 -0.9146,-2.67206 -0.278988,-0.85937 -0.0099,-0.0158 -0.260963,-0.84527 -0.111913,-0.36974 -0.239202,-0.7556 -0.186378,-1.15051 z" />
    <path
       style="fill:#1a1a1a;stroke:none;stroke-width:0.529715;stroke-opacity:1"
       id="path71"
       d="m 107.02526,209.7112 c -0.17259,-0.60963 0.20077,-1.18032 0.54657,-1.68122 0.75526,-0.86379 1.68018,-1.59107 2.55949,-2.35147 0.91198,-0.76106 1.82446,-1.52177 2.76074,-2.25933 1.07038,-0.81273 2.16885,-1.5953 3.24483,-2.40211 1.38404,-1.05806 2.72991,-2.1555 4.08473,-3.243 1.31203,-1.05619 2.66394,-2.07268 4.01573,-3.08844 1.51631,-1.14841 3.02762,-2.2885 4.63054,-3.34169 1.56153,-1.06888 3.1574,-2.1069 4.64711,-3.25573 0.28966,-0.22338 0.56809,-0.45799 0.85214,-0.68699 1.52011,-1.244 2.95578,-2.56444 4.41076,-3.86728 1.09302,-0.94723 2.3174,-1.76049 3.5625,-2.5412 1.02667,-0.66732 2.03687,-1.35261 3.08267,-1.99636 0.93446,-0.56434 1.94234,-1.02154 2.88382,-1.57549 0.93474,-0.58052 1.88931,-1.13544 2.88017,-1.63809 0.73684,-0.34764 1.49625,-0.66517 2.28748,-0.9032 0.39497,-0.10987 0.78562,-0.23106 1.18709,-0.32106 0.1952,-0.0441 0.40225,-0.027 0.59522,0.0197 0.0339,-0.0317 0.0618,0.0744 0.0453,0.0653 -0.59068,-0.32878 -1.17018,-0.67308 -1.75526,-1.00963 0,0 0.81138,0.33418 0.81138,0.33418 v 0 c -0.60699,-0.38712 -1.21398,-0.77426 -1.82098,-1.16139 -0.0107,0.0257 -0.005,0.0495 -0.0177,0.0711 -0.0533,0.10893 -0.14599,0.18177 -0.27792,0.21482 -0.38841,0.12241 -0.78298,0.2295 -1.16549,0.36595 -0.71339,0.31946 -1.37451,0.71986 -2.0709,1.06649 -0.58086,0.29791 -1.17653,0.5766 -1.74098,0.89896 -0.15188,0.0867 -0.29702,0.18254 -0.44777,0.27085 -0.81731,0.47882 -0.0282,-0.006 -0.75827,0.44901 -0.91183,0.54702 -1.79041,1.13684 -2.70773,1.67697 -1.07239,0.6304 -2.12833,1.28275 -3.15537,1.97009 -0.22948,0.16768 -0.60491,0.43769 -0.81947,0.6131 -0.8386,0.68551 -1.58412,1.45801 -2.44865,2.11974 -0.66129,0.54447 -0.95044,0.76738 -1.56968,1.33461 -0.92596,0.84818 -1.7442,1.78527 -2.71435,2.59703 -0.788,0.65747 -0.87031,0.7434 -1.70096,1.36646 -1.21201,0.90912 -2.50086,1.72995 -3.77319,2.57011 -1.57104,1.09246 -3.13034,2.19792 -4.66231,3.33339 -0.46712,0.34085 -0.93955,0.67599 -1.40339,1.02033 -0.89525,0.6646 -1.73351,1.38595 -2.58684,2.09186 -1.3469,1.10676 -2.73233,2.17257 -4.16914,3.18688 -1.09235,0.80323 -2.23872,1.5451 -3.30527,2.37523 -0.93968,0.74007 -1.87471,1.48566 -2.78037,2.25853 -0.89572,0.7659 -1.76859,1.55548 -2.61437,2.36444 -0.11171,0.12298 -0.23702,0.23714 -0.33511,0.36895 -0.29567,0.39729 -0.4192,0.92873 -0.47631,1.39463 z" />
    <path
       style="fill:#1a1a1a;stroke:none;stroke-width:0.613626;stroke-opacity:1"
       id="path72"
       d="m 60.93365,175.56815 c 0.486143,0.69051 1.171167,1.16408 1.813734,1.64098 1.740054,1.27243 3.57016,2.3257 5.498387,3.15795 0.746319,0.32214 1.336092,0.53459 2.093894,0.82065 1.702594,0.64192 3.437006,1.16396 5.163612,1.71313 1.361215,0.40787 2.642753,1.0502 3.878481,1.80759 1.819127,1.21169 -0.617862,-0.41617 -1.225746,-0.77711 -0.227464,-0.13505 0.431329,0.31659 0.644159,0.47977 0.632204,0.48467 1.238893,1.00629 1.844907,1.53209 1.168886,1.02345 2.27468,2.13518 3.365623,3.26367 0.97355,1.00145 1.903643,2.05503 2.812922,3.13165 0.784862,0.93335 1.612621,1.81681 2.461973,2.67283 0.793808,0.79149 1.622525,1.53503 2.432982,2.30381 0.875763,0.84536 1.759644,1.6795 2.630036,2.53207 1.031406,1.0519 2.008749,2.16985 2.968431,3.30583 0.687251,0.8282 1.34158,1.68977 1.985948,2.56122 0.430543,0.57018 0.831927,1.16745 1.214667,1.78003 0.1637,0.30999 0.35902,0.59953 0.5116,0.91708 0.0461,0.0993 0.0907,0.20787 0.17347,0.27458 -0.001,0.12192 0.0672,0.20168 0.12938,0.28978 0.0181,0.003 0.003,0.1205 0.0222,0.1295 0.17941,0.0826 0.36375,0.1505 0.54564,0.22574 0.40753,0.19891 0.81506,0.39782 1.22258,0.59673 0,0 0.2068,0.13134 0.2068,0.13134 v 0 c 0.41774,0.16863 0.83405,0.34196 1.25322,0.50591 0.8173,0.31969 0.601,0.12722 0.38715,0.19495 -0.0523,-0.0817 -0.11362,-0.20156 -0.20805,-0.20639 -0.0196,-0.16429 -0.11585,-0.27236 -0.21552,-0.38215 -0.2139,-0.32981 -0.42139,-0.66466 -0.63065,-0.99832 -0.41716,-0.65097 -0.87909,-1.26125 -1.33401,-1.87788 -0.70105,-0.90207 -1.41037,-1.79527 -2.14464,-2.66261 -0.983357,-1.13749 -1.981658,-2.25815 -3.004287,-3.34978 -0.823297,-0.88835 -1.717257,-1.68196 -2.577508,-2.5227 -0.806285,-0.77328 -1.625524,-1.52846 -2.435306,-2.29693 -0.870027,-0.84864 -1.714106,-1.73123 -2.516152,-2.66359 -0.945119,-1.09757 -1.912572,-2.17036 -2.910691,-3.20526 -1.13202,-1.14377 -2.260317,-2.29646 -3.465244,-3.34075 -0.834266,-0.72388 -1.672753,-1.47133 -2.573664,-2.08659 -1.071911,-0.73204 -2.153729,-1.44504 -3.233105,-2.16265 -0.222638,-0.14804 -0.44858,-0.28949 -0.672871,-0.43422 -0.56334,-0.33035 -0.699351,-0.42505 -1.269469,-0.70335 -0.830841,-0.40556 -1.697336,-0.70502 -2.568469,-0.97432 -1.633656,-0.48992 -3.284537,-0.90879 -4.894452,-1.49731 -1.289277,-0.48368 -2.575778,-0.98402 -3.81097,-1.63079 -0.28397,-0.1487 -1.086403,-0.69208 -0.841931,-0.47009 0.401966,0.36496 0.880822,0.60352 1.321233,0.90529 -0.504081,-0.34944 -0.698489,-0.46831 -1.165543,-0.8497 -0.445445,-0.36373 -0.874358,-0.75598 -1.345004,-1.07931 z" />
  </g>
</svg>
